<?xml version="1.0" standalone="no"?>
<!DOCTYPE svg PUBLIC "-//W3C//DTD SVG 20010904//EN"
 "http://www.w3.org/TR/2001/REC-SVG-20010904/DTD/svg10.dtd">
<svg version="1.0" xmlns="http://www.w3.org/2000/svg"
 width="500.000000pt" height="500.000000pt" viewBox="0 0 500.000000 500.000000"
 preserveAspectRatio="xMidYMid meet">
<metadata>
Created by potrace 1.14, written by Peter Selinger 2001-2017
</metadata>
<g transform="translate(0.000000,500.000000) scale(0.100000,-0.100000)"
fill="#000000" stroke="none">
<path d="M1644 3248 c-4 -6 -8 -70 -9 -142 l-1 -131 61 -30 c55 -28 190 -112
218 -135 7 -6 23 -20 37 -31 88 -72 269 -268 304 -328 5 -9 16 -22 23 -30 23
-22 113 -159 113 -171 0 -5 5 -10 10 -10 6 0 10 -7 10 -15 0 -8 4 -15 9 -15 5
0 14 -14 21 -30 16 -38 36 -53 26 -19 -12 42 -13 44 -19 59 -3 8 -12 35 -21
60 -40 123 -169 376 -198 388 -5 2 -8 9 -8 15 0 7 -9 23 -20 37 -11 14 -41 52
-67 85 -115 145 -218 244 -425 409 -38 30 -60 42 -64 34z"/>
<path d="M3308 3231 c-40 -30 -100 -77 -158 -126 -78 -65 -300 -298 -300 -315
0 -4 -6 -13 -13 -19 -28 -23 -127 -181 -181 -287 -52 -103 -126 -298 -126
-332 0 -8 23 23 51 69 28 46 62 98 75 116 13 17 24 34 24 37 0 6 32 45 58 72
7 8 10 14 5 14 -4 0 -3 4 2 8 6 4 30 32 55 62 151 182 346 344 507 419 l51 24
-1 137 c-1 76 -4 141 -7 143 -3 3 -22 -7 -42 -22z"/>
<path d="M1142 2913 l3 -167 70 -18 c72 -19 211 -63 255 -81 14 -5 30 -11 35
-12 23 -6 190 -89 193 -97 2 -4 10 -8 18 -8 15 0 176 -101 201 -126 8 -8 18
-14 23 -14 5 0 15 -6 22 -12 7 -7 38 -33 68 -58 127 -103 275 -253 377 -382
42 -53 66 -76 46 -45 -4 6 -8 14 -8 17 -1 6 -68 137 -96 186 -33 59 -89 146
-105 161 -8 8 -14 18 -14 22 0 4 -8 16 -17 27 -10 10 -31 37 -48 59 -45 61
-252 265 -325 322 -144 111 -292 203 -450 280 -104 50 -182 85 -195 87 -5 1
-20 8 -33 14 l-22 13 2 -168z"/>
<path d="M3775 3044 c-33 -14 -78 -32 -100 -41 -22 -9 -45 -20 -52 -25 -7 -6
-43 -24 -80 -42 -37 -18 -94 -50 -125 -70 -32 -20 -58 -34 -58 -31 0 3 -8 -2
-17 -11 -10 -8 -55 -42 -101 -74 -196 -138 -404 -350 -512 -520 -19 -30 -37
-57 -41 -60 -6 -5 -44 -72 -106 -191 -27 -50 -46 -99 -38 -99 1 0 14 17 28 38
13 20 40 55 58 77 47 56 278 285 314 313 17 12 57 42 90 67 33 25 65 49 72 55
7 6 24 15 38 22 14 6 25 14 25 18 0 4 8 10 18 14 9 3 40 19 67 35 42 25 127
70 145 76 3 1 19 7 35 14 17 7 32 12 35 12 3 0 13 8 23 16 9 9 17 13 17 10 0
-4 24 3 53 14 28 11 106 36 172 54 l119 32 1 162 c0 105 -3 161 -10 161 -5 0
-37 -12 -70 -26z"/>
<path d="M2460 2962 c-32 -5 -85 -58 -103 -102 -27 -65 -7 -170 41 -213 21
-19 82 -44 100 -41 6 1 21 2 32 3 25 1 89 57 103 90 25 62 11 178 -26 216 -41
41 -89 56 -147 47z"/>
<path d="M4457 2704 c-3 -3 -22 -7 -43 -10 -22 -2 -50 -6 -64 -9 -47 -10 -74
-15 -113 -20 -22 -4 -49 -10 -62 -15 -13 -5 -25 -7 -27 -5 -2 2 -73 -14 -158
-36 -85 -22 -162 -42 -170 -44 -32 -7 -229 -74 -295 -101 -96 -38 -250 -115
-330 -164 -37 -22 -69 -40 -71 -40 -3 0 -10 -4 -17 -10 -7 -5 -54 -42 -106
-81 -109 -84 -213 -185 -291 -284 -30 -39 -57 -72 -60 -75 -6 -6 -30 -48 -30
-53 0 -2 21 17 48 42 64 63 193 164 261 206 149 92 221 130 341 182 104 44
122 51 131 49 3 0 12 4 20 10 26 21 370 125 494 150 11 2 43 8 70 14 28 6 61
13 75 15 31 7 89 16 115 20 11 1 37 6 58 10 25 5 37 4 37 -4 0 -6 -16 -73 -36
-148 -20 -76 -38 -145 -39 -153 -2 -8 -4 -16 -5 -17 -3 -3 -3 -3 -15 -58 -12
-59 -12 -56 -25 -105 -14 -52 -22 -90 -23 -107 0 -7 -4 -13 -9 -13 -5 0 -6 -4
-3 -10 3 -5 1 -26 -4 -47 -6 -20 -9 -38 -7 -40 2 -2 66 154 71 177 1 3 6 16
12 30 53 127 153 386 153 397 0 7 4 13 9 13 5 0 11 10 14 23 3 12 24 69 47
127 64 161 70 179 61 184 -5 3 -11 3 -14 0z"/>
<path d="M585 2519 c40 -101 103 -260 140 -354 37 -93 70 -174 74 -180 3 -5 6
-12 6 -15 1 -19 70 -180 77 -180 5 0 6 5 3 10 -4 6 -9 23 -11 38 -5 25 -51
220 -79 332 -3 11 -7 28 -9 38 -2 9 -14 55 -26 102 -43 163 -42 151 -6 145 62
-9 92 -14 126 -20 19 -4 46 -9 60 -11 30 -4 97 -19 160 -34 25 -5 56 -13 70
-16 40 -8 188 -51 270 -78 346 -111 662 -286 876 -485 52 -49 75 -58 34 -13
-11 12 -20 26 -20 32 0 5 -4 10 -8 10 -4 0 -15 12 -24 28 -16 25 -39 53 -114
134 -143 154 -414 335 -649 433 -22 9 -53 23 -70 30 -32 14 -140 54 -165 61
-8 2 -69 20 -135 39 -66 20 -172 47 -235 61 -63 14 -126 28 -140 31 -35 9 -44
10 -87 17 -21 3 -49 8 -63 11 -14 3 -48 8 -77 11 l-51 7 73 -184z"/>
</g>
</svg>
